<mxfile host="app.diagrams.net" agent="Mozilla/5.0 (Windows NT 10.0; Win64; x64) AppleWebKit/537.36 (KHTML, like Gecko) Chrome/134.0.0.0 Safari/537.36 Edg/134.0.0.0" version="26.1.0" pages="3">
  <diagram name="Arquitetura da Aplicação" id="9uzGZt0D54ITw_jfRAbf">
    <mxGraphModel dx="2194" dy="2318" grid="1" gridSize="10" guides="1" tooltips="1" connect="1" arrows="1" fold="1" page="1" pageScale="1" pageWidth="827" pageHeight="1169" background="none" math="0" shadow="0">
      <root>
        <mxCell id="0" />
        <mxCell id="1" parent="0" />
        <mxCell id="rBP_9qC5Dho6mVosZ1Wq-18" value="" style="group" parent="1" connectable="0" vertex="1">
          <mxGeometry x="70" y="-540" width="507.86" height="239" as="geometry" />
        </mxCell>
        <mxCell id="fZaOEl6QZcA-DJm4cIK6-20" value="" style="group" parent="rBP_9qC5Dho6mVosZ1Wq-18" connectable="0" vertex="1">
          <mxGeometry x="127.93" y="120" width="252" height="119" as="geometry" />
        </mxCell>
        <mxCell id="fZaOEl6QZcA-DJm4cIK6-1" value="" style="outlineConnect=0;dashed=0;verticalLabelPosition=bottom;verticalAlign=top;align=center;html=1;shape=mxgraph.aws3.cloud_2;fillColor=#F58534;gradientColor=none;" parent="fZaOEl6QZcA-DJm4cIK6-20" vertex="1">
          <mxGeometry x="88.5" width="75" height="75" as="geometry" />
        </mxCell>
        <mxCell id="fZaOEl6QZcA-DJm4cIK6-19" value="&lt;b&gt;Análise Dinâmica de logs de OLTs - &lt;u&gt;POC&lt;/u&gt;&lt;/b&gt;&lt;div&gt;&lt;b&gt;&lt;br&gt;&lt;/b&gt;&lt;/div&gt;&lt;div&gt;&lt;b&gt;Responsável: Leonardo Bora&lt;/b&gt;&lt;/div&gt;" style="text;html=1;align=center;verticalAlign=middle;whiteSpace=wrap;rounded=0;" parent="fZaOEl6QZcA-DJm4cIK6-20" vertex="1">
          <mxGeometry y="89" width="252" height="30" as="geometry" />
        </mxCell>
        <mxCell id="rBP_9qC5Dho6mVosZ1Wq-17" value="" style="shape=image;verticalLabelPosition=bottom;labelBackgroundColor=default;verticalAlign=top;aspect=fixed;imageAspect=0;image=https://telesintese.com.br/wp-content/uploads/2017/03/furukawa-electric.png;" parent="rBP_9qC5Dho6mVosZ1Wq-18" vertex="1">
          <mxGeometry x="141.07" y="40" width="225.72" height="40" as="geometry" />
        </mxCell>
        <mxCell id="fZaOEl6QZcA-DJm4cIK6-6" value="" style="group;fontStyle=1" parent="1" connectable="0" vertex="1">
          <mxGeometry x="475.5" y="551" width="170" height="110" as="geometry" />
        </mxCell>
        <mxCell id="fZaOEl6QZcA-DJm4cIK6-4" value="" style="group" parent="fZaOEl6QZcA-DJm4cIK6-6" connectable="0" vertex="1">
          <mxGeometry width="160" height="70.2" as="geometry" />
        </mxCell>
        <mxCell id="fZaOEl6QZcA-DJm4cIK6-2" value="" style="shape=mxgraph.cisco.modems_and_phones.modem;html=1;pointerEvents=1;dashed=0;fillColor=#036897;strokeColor=#ffffff;strokeWidth=2;verticalLabelPosition=bottom;verticalAlign=top;align=center;outlineConnect=0;" parent="fZaOEl6QZcA-DJm4cIK6-4" vertex="1">
          <mxGeometry x="72.99435028248588" y="21.600000000000012" width="87.0056497175141" height="26.999999999999986" as="geometry" />
        </mxCell>
        <mxCell id="fZaOEl6QZcA-DJm4cIK6-3" value="" style="image;points=[];aspect=fixed;html=1;align=center;shadow=0;dashed=0;image=img/lib/allied_telesis/buildings/Medium_Business_Building.svg;" parent="fZaOEl6QZcA-DJm4cIK6-4" vertex="1">
          <mxGeometry width="54.59999999999997" height="70.19999999999995" as="geometry" />
        </mxCell>
        <mxCell id="fZaOEl6QZcA-DJm4cIK6-5" value="&lt;b&gt;Rede do Cliente (OLTs + NA)&lt;/b&gt;" style="text;html=1;align=center;verticalAlign=middle;whiteSpace=wrap;rounded=0;" parent="fZaOEl6QZcA-DJm4cIK6-6" vertex="1">
          <mxGeometry y="80" width="170" height="30" as="geometry" />
        </mxCell>
        <mxCell id="fZaOEl6QZcA-DJm4cIK6-13" value="" style="edgeStyle=orthogonalEdgeStyle;rounded=0;orthogonalLoop=1;jettySize=auto;html=1;flowAnimation=1;" parent="1" source="fZaOEl6QZcA-DJm4cIK6-7" edge="1">
          <mxGeometry relative="1" as="geometry">
            <mxPoint x="555.5" y="331" as="targetPoint" />
          </mxGeometry>
        </mxCell>
        <mxCell id="fZaOEl6QZcA-DJm4cIK6-7" value="Cloud" style="html=1;whiteSpace=wrap;strokeColor=none;fillColor=#0079D6;labelPosition=center;verticalLabelPosition=middle;verticalAlign=top;align=center;fontSize=12;outlineConnect=0;spacingTop=-6;fontColor=#FFFFFF;sketch=0;shape=mxgraph.sitemap.cloud;" parent="1" vertex="1">
          <mxGeometry x="495.5" y="391" width="120" height="70" as="geometry" />
        </mxCell>
        <mxCell id="fZaOEl6QZcA-DJm4cIK6-10" style="edgeStyle=orthogonalEdgeStyle;rounded=0;orthogonalLoop=1;jettySize=auto;html=1;flowAnimation=1;" parent="1" edge="1">
          <mxGeometry relative="1" as="geometry">
            <mxPoint x="555.5" y="551" as="sourcePoint" />
            <mxPoint x="555.5" y="491" as="targetPoint" />
          </mxGeometry>
        </mxCell>
        <mxCell id="fZaOEl6QZcA-DJm4cIK6-11" value="Network Agent / Manager" style="text;html=1;align=center;verticalAlign=middle;whiteSpace=wrap;rounded=0;fontStyle=1" parent="1" vertex="1">
          <mxGeometry x="495.5" y="461" width="120" height="30" as="geometry" />
        </mxCell>
        <mxCell id="fZaOEl6QZcA-DJm4cIK6-16" style="edgeStyle=orthogonalEdgeStyle;rounded=0;orthogonalLoop=1;jettySize=auto;html=1;flowAnimation=1;" parent="1" source="fZaOEl6QZcA-DJm4cIK6-12" edge="1">
          <mxGeometry relative="1" as="geometry">
            <mxPoint x="555.5" y="171" as="targetPoint" />
          </mxGeometry>
        </mxCell>
        <mxCell id="fZaOEl6QZcA-DJm4cIK6-12" value="" style="outlineConnect=0;dashed=0;verticalLabelPosition=bottom;verticalAlign=top;align=center;html=1;shape=mxgraph.aws3.sns;fillColor=#D9A741;gradientColor=none;" parent="1" vertex="1">
          <mxGeometry x="517.25" y="234.5" width="76.5" height="76.5" as="geometry" />
        </mxCell>
        <mxCell id="fZaOEl6QZcA-DJm4cIK6-14" value="SNS de entrada" style="text;html=1;align=center;verticalAlign=middle;whiteSpace=wrap;rounded=0;fillColor=none;fontStyle=1" parent="1" vertex="1">
          <mxGeometry x="495.5" y="311" width="120" height="30" as="geometry" />
        </mxCell>
        <mxCell id="fZaOEl6QZcA-DJm4cIK6-15" value="" style="outlineConnect=0;dashed=0;verticalLabelPosition=bottom;verticalAlign=top;align=center;html=1;shape=mxgraph.aws3.lambda_function;fillColor=#F58534;gradientColor=none;" parent="1" vertex="1">
          <mxGeometry x="521" y="59" width="69" height="72" as="geometry" />
        </mxCell>
        <mxCell id="fZaOEl6QZcA-DJm4cIK6-17" value="Lambda (backend)" style="text;html=1;align=center;verticalAlign=middle;whiteSpace=wrap;rounded=0;fontStyle=1" parent="1" vertex="1">
          <mxGeometry x="525.5" y="131" width="60" height="30" as="geometry" />
        </mxCell>
        <mxCell id="fZaOEl6QZcA-DJm4cIK6-24" value="" style="endArrow=classic;html=1;rounded=0;entryX=0.058;entryY=0.528;entryDx=0;entryDy=0;entryPerimeter=0;flowAnimation=1;" parent="1" source="fZaOEl6QZcA-DJm4cIK6-21" target="fZaOEl6QZcA-DJm4cIK6-27" edge="1">
          <mxGeometry relative="1" as="geometry">
            <mxPoint x="998.75" y="111.75" as="sourcePoint" />
            <mxPoint x="1098.75" y="111.75" as="targetPoint" />
          </mxGeometry>
        </mxCell>
        <mxCell id="fZaOEl6QZcA-DJm4cIK6-25" value="" style="shape=message;html=1;outlineConnect=0;" parent="fZaOEl6QZcA-DJm4cIK6-24" vertex="1">
          <mxGeometry width="20" height="14" relative="1" as="geometry">
            <mxPoint x="-10" y="-7" as="offset" />
          </mxGeometry>
        </mxCell>
        <mxCell id="fZaOEl6QZcA-DJm4cIK6-32" value="" style="group" parent="1" connectable="0" vertex="1">
          <mxGeometry x="695.5" y="54.75" width="86" height="114" as="geometry" />
        </mxCell>
        <mxCell id="fZaOEl6QZcA-DJm4cIK6-29" value="" style="outlineConnect=0;dashed=0;verticalLabelPosition=bottom;verticalAlign=top;align=center;html=1;shape=mxgraph.aws3.rds;fillColor=#2E73B8;gradientColor=none;" parent="fZaOEl6QZcA-DJm4cIK6-32" vertex="1">
          <mxGeometry x="7" width="72" height="81" as="geometry" />
        </mxCell>
        <mxCell id="fZaOEl6QZcA-DJm4cIK6-31" value="RDS (Database)" style="text;html=1;align=center;verticalAlign=middle;whiteSpace=wrap;rounded=0;fontStyle=1" parent="fZaOEl6QZcA-DJm4cIK6-32" vertex="1">
          <mxGeometry y="84" width="86" height="30" as="geometry" />
        </mxCell>
        <mxCell id="fZaOEl6QZcA-DJm4cIK6-33" style="edgeStyle=orthogonalEdgeStyle;rounded=0;orthogonalLoop=1;jettySize=auto;html=1;entryX=0;entryY=0.5;entryDx=0;entryDy=0;entryPerimeter=0;flowAnimation=1;" parent="1" source="fZaOEl6QZcA-DJm4cIK6-15" target="fZaOEl6QZcA-DJm4cIK6-29" edge="1">
          <mxGeometry relative="1" as="geometry" />
        </mxCell>
        <mxCell id="fZaOEl6QZcA-DJm4cIK6-34" style="edgeStyle=orthogonalEdgeStyle;rounded=0;orthogonalLoop=1;jettySize=auto;html=1;exitX=1;exitY=0.5;exitDx=0;exitDy=0;exitPerimeter=0;entryX=0;entryY=0.48;entryDx=0;entryDy=0;entryPerimeter=0;flowAnimation=1;" parent="1" source="fZaOEl6QZcA-DJm4cIK6-29" target="fZaOEl6QZcA-DJm4cIK6-21" edge="1">
          <mxGeometry relative="1" as="geometry" />
        </mxCell>
        <mxCell id="fZaOEl6QZcA-DJm4cIK6-35" value="" style="group" parent="1" connectable="0" vertex="1">
          <mxGeometry x="868.75" y="59" width="130" height="106.5" as="geometry" />
        </mxCell>
        <mxCell id="fZaOEl6QZcA-DJm4cIK6-21" value="" style="outlineConnect=0;dashed=0;verticalLabelPosition=bottom;verticalAlign=top;align=center;html=1;shape=mxgraph.aws3.sns;fillColor=#D9A741;gradientColor=none;" parent="fZaOEl6QZcA-DJm4cIK6-35" vertex="1">
          <mxGeometry x="26.75" width="76.5" height="76.5" as="geometry" />
        </mxCell>
        <mxCell id="fZaOEl6QZcA-DJm4cIK6-22" value="SNS de saída (e-mail)" style="text;html=1;align=center;verticalAlign=middle;whiteSpace=wrap;rounded=0;fillColor=none;fontStyle=1" parent="fZaOEl6QZcA-DJm4cIK6-35" vertex="1">
          <mxGeometry y="76.5" width="130" height="30" as="geometry" />
        </mxCell>
        <mxCell id="fZaOEl6QZcA-DJm4cIK6-36" value="" style="group" parent="1" connectable="0" vertex="1">
          <mxGeometry x="1106.5" y="59" width="130" height="109.75" as="geometry" />
        </mxCell>
        <mxCell id="fZaOEl6QZcA-DJm4cIK6-27" value="" style="points=[[0.35,0,0],[0.98,0.51,0],[1,0.71,0],[0.67,1,0],[0,0.795,0],[0,0.65,0]];verticalLabelPosition=bottom;sketch=0;html=1;verticalAlign=top;aspect=fixed;align=center;pointerEvents=1;shape=mxgraph.cisco19.user;fillColor=#005073;strokeColor=none;" parent="fZaOEl6QZcA-DJm4cIK6-36" vertex="1">
          <mxGeometry x="27" width="76" height="76" as="geometry" />
        </mxCell>
        <mxCell id="fZaOEl6QZcA-DJm4cIK6-28" value="Report de Anomalias&lt;br&gt;para o cliente." style="text;html=1;align=center;verticalAlign=middle;whiteSpace=wrap;rounded=0;fillColor=none;fontStyle=1" parent="fZaOEl6QZcA-DJm4cIK6-36" vertex="1">
          <mxGeometry y="79.75" width="130" height="30" as="geometry" />
        </mxCell>
        <mxCell id="fZaOEl6QZcA-DJm4cIK6-38" value="" style="edgeStyle=orthogonalEdgeStyle;rounded=0;orthogonalLoop=1;jettySize=auto;html=1;" parent="1" source="fZaOEl6QZcA-DJm4cIK6-29" edge="1">
          <mxGeometry relative="1" as="geometry">
            <mxPoint x="738.5" y="-7" as="targetPoint" />
          </mxGeometry>
        </mxCell>
        <mxCell id="BZmDpKkLjAampmcxQD7t-3" value="" style="edgeStyle=orthogonalEdgeStyle;rounded=0;orthogonalLoop=1;jettySize=auto;html=1;" parent="1" source="fZaOEl6QZcA-DJm4cIK6-39" target="BZmDpKkLjAampmcxQD7t-2" edge="1">
          <mxGeometry relative="1" as="geometry" />
        </mxCell>
        <mxCell id="fZaOEl6QZcA-DJm4cIK6-39" value="" style="outlineConnect=0;dashed=0;verticalLabelPosition=bottom;verticalAlign=top;align=center;html=1;shape=mxgraph.aws3.lambda_function;fillColor=#F58534;gradientColor=none;" parent="1" vertex="1">
          <mxGeometry x="704" y="-109" width="69" height="72" as="geometry" />
        </mxCell>
        <mxCell id="fZaOEl6QZcA-DJm4cIK6-41" value="Lambda (front-end)" style="text;html=1;align=center;verticalAlign=middle;whiteSpace=wrap;rounded=0;fontStyle=1" parent="1" vertex="1">
          <mxGeometry x="680" y="-37" width="117" height="30" as="geometry" />
        </mxCell>
        <mxCell id="fZaOEl6QZcA-DJm4cIK6-42" value="" style="sketch=0;points=[[0,0,0],[0.25,0,0],[0.5,0,0],[0.75,0,0],[1,0,0],[0,1,0],[0.25,1,0],[0.5,1,0],[0.75,1,0],[1,1,0],[0,0.25,0],[0,0.5,0],[0,0.75,0],[1,0.25,0],[1,0.5,0],[1,0.75,0]];outlineConnect=0;fontColor=#232F3E;fillColor=#7AA116;strokeColor=#ffffff;dashed=0;verticalLabelPosition=bottom;verticalAlign=top;align=center;html=1;fontSize=12;fontStyle=0;aspect=fixed;shape=mxgraph.aws4.resourceIcon;resIcon=mxgraph.aws4.s3;" parent="1" vertex="1">
          <mxGeometry x="375.5" y="56" width="78" height="78" as="geometry" />
        </mxCell>
        <mxCell id="fZaOEl6QZcA-DJm4cIK6-43" value="S3 (treinamento + documentação)" style="text;html=1;align=center;verticalAlign=middle;whiteSpace=wrap;rounded=0;fontStyle=1" parent="1" vertex="1">
          <mxGeometry x="340" y="138.75" width="149" height="30" as="geometry" />
        </mxCell>
        <mxCell id="BZmDpKkLjAampmcxQD7t-1" value="" style="sketch=0;points=[[0,0,0],[0.25,0,0],[0.5,0,0],[0.75,0,0],[1,0,0],[0,1,0],[0.25,1,0],[0.5,1,0],[0.75,1,0],[1,1,0],[0,0.25,0],[0,0.5,0],[0,0.75,0],[1,0.25,0],[1,0.5,0],[1,0.75,0]];outlineConnect=0;fontColor=#232F3E;fillColor=#E7157B;strokeColor=#ffffff;dashed=0;verticalLabelPosition=bottom;verticalAlign=top;align=center;html=1;fontSize=12;fontStyle=0;aspect=fixed;shape=mxgraph.aws4.resourceIcon;resIcon=mxgraph.aws4.api_gateway;" parent="1" vertex="1">
          <mxGeometry x="698.75" y="-249" width="78" height="78" as="geometry" />
        </mxCell>
        <mxCell id="BZmDpKkLjAampmcxQD7t-2" value="API Gateway" style="text;html=1;align=center;verticalAlign=middle;whiteSpace=wrap;rounded=0;fontStyle=1" parent="1" vertex="1">
          <mxGeometry x="695" y="-171" width="87" height="30" as="geometry" />
        </mxCell>
        <mxCell id="rBP_9qC5Dho6mVosZ1Wq-5" value="" style="sketch=0;points=[[0,0,0],[0.25,0,0],[0.5,0,0],[0.75,0,0],[1,0,0],[0,1,0],[0.25,1,0],[0.5,1,0],[0.75,1,0],[1,1,0],[0,0.25,0],[0,0.5,0],[0,0.75,0],[1,0.25,0],[1,0.5,0],[1,0.75,0]];outlineConnect=0;fontColor=#232F3E;fillColor=#7AA116;strokeColor=#ffffff;dashed=0;verticalLabelPosition=bottom;verticalAlign=top;align=center;html=1;fontSize=12;fontStyle=0;aspect=fixed;shape=mxgraph.aws4.resourceIcon;resIcon=mxgraph.aws4.s3;" parent="1" vertex="1">
          <mxGeometry x="894.75" y="-112" width="78" height="78" as="geometry" />
        </mxCell>
        <mxCell id="rBP_9qC5Dho6mVosZ1Wq-9" style="edgeStyle=orthogonalEdgeStyle;rounded=0;orthogonalLoop=1;jettySize=auto;html=1;entryX=1;entryY=0.5;entryDx=0;entryDy=0;entryPerimeter=0;exitX=0;exitY=0.5;exitDx=0;exitDy=0;flowAnimation=1;" parent="1" source="rBP_9qC5Dho6mVosZ1Wq-16" target="rBP_9qC5Dho6mVosZ1Wq-5" edge="1">
          <mxGeometry relative="1" as="geometry">
            <mxPoint x="1065.4999999999995" y="-73.00500000000011" as="sourcePoint" />
          </mxGeometry>
        </mxCell>
        <mxCell id="rBP_9qC5Dho6mVosZ1Wq-10" value="S3 para website estático" style="text;html=1;align=center;verticalAlign=middle;whiteSpace=wrap;rounded=0;fontStyle=1" parent="1" vertex="1">
          <mxGeometry x="875.25" y="-35" width="117" height="30" as="geometry" />
        </mxCell>
        <mxCell id="rBP_9qC5Dho6mVosZ1Wq-12" value="" style="image;aspect=fixed;html=1;points=[];align=center;fontSize=12;image=img/lib/azure2/general/Dashboard2.svg;" parent="1" vertex="1">
          <mxGeometry x="682.5" y="-599" width="110.5" height="78" as="geometry" />
        </mxCell>
        <mxCell id="rBP_9qC5Dho6mVosZ1Wq-13" style="edgeStyle=orthogonalEdgeStyle;rounded=0;orthogonalLoop=1;jettySize=auto;html=1;entryX=0.5;entryY=0;entryDx=0;entryDy=0;entryPerimeter=0;" parent="1" source="rBP_9qC5Dho6mVosZ1Wq-12" edge="1">
          <mxGeometry relative="1" as="geometry">
            <mxPoint x="737.75" y="-439" as="targetPoint" />
          </mxGeometry>
        </mxCell>
        <mxCell id="rBP_9qC5Dho6mVosZ1Wq-14" value="Dashboard principal para visualização de anomalias" style="text;html=1;align=center;verticalAlign=middle;whiteSpace=wrap;rounded=0;fontStyle=1" parent="1" vertex="1">
          <mxGeometry x="647.75" y="-639" width="180" height="30" as="geometry" />
        </mxCell>
        <mxCell id="rBP_9qC5Dho6mVosZ1Wq-15" value="Bootstrap Studio&lt;div&gt;(html, css, js)&lt;/div&gt;" style="text;html=1;align=center;verticalAlign=middle;whiteSpace=wrap;rounded=0;fontStyle=1" parent="1" vertex="1">
          <mxGeometry x="1052" y="-32" width="117" height="30" as="geometry" />
        </mxCell>
        <mxCell id="rBP_9qC5Dho6mVosZ1Wq-16" value="" style="shape=image;verticalLabelPosition=bottom;labelBackgroundColor=default;verticalAlign=top;aspect=fixed;imageAspect=0;image=https://allpcworld.com/wp-content/uploads/2020/06/Download-Bootstrap-Studio-5.1.png;" parent="1" vertex="1">
          <mxGeometry x="1069.5" y="-114" width="82" height="82" as="geometry" />
        </mxCell>
        <mxCell id="rBP_9qC5Dho6mVosZ1Wq-19" value="" style="ellipse;html=1;shape=endState;fillColor=#FF0800;strokeColor=#ff0000;" parent="1" vertex="1">
          <mxGeometry x="1255.5" y="82" width="30" height="30" as="geometry" />
        </mxCell>
        <mxCell id="rBP_9qC5Dho6mVosZ1Wq-20" value="" style="ellipse;html=1;shape=endState;fillColor=#FF0800;strokeColor=#ff0000;" parent="1" vertex="1">
          <mxGeometry x="723" y="-690" width="31" height="31" as="geometry" />
        </mxCell>
        <mxCell id="_aVkQuLdsNPz5XUx-6iK-1" style="edgeStyle=orthogonalEdgeStyle;rounded=0;orthogonalLoop=1;jettySize=auto;html=1;exitX=0;exitY=0.5;exitDx=0;exitDy=0;entryX=0;entryY=0;entryDx=0;entryDy=0;" parent="1" source="rBP_9qC5Dho6mVosZ1Wq-19" target="rBP_9qC5Dho6mVosZ1Wq-19" edge="1">
          <mxGeometry relative="1" as="geometry" />
        </mxCell>
        <mxCell id="_aVkQuLdsNPz5XUx-6iK-2" value="" style="outlineConnect=0;dashed=0;verticalLabelPosition=bottom;verticalAlign=top;align=center;html=1;shape=mxgraph.aws3.cloudfront;fillColor=#F58536;gradientColor=none;" parent="1" vertex="1">
          <mxGeometry x="699.5" y="-439" width="76.5" height="93" as="geometry" />
        </mxCell>
        <mxCell id="_aVkQuLdsNPz5XUx-6iK-3" style="edgeStyle=orthogonalEdgeStyle;rounded=0;orthogonalLoop=1;jettySize=auto;html=1;entryX=0.5;entryY=0;entryDx=0;entryDy=0;entryPerimeter=0;" parent="1" target="BZmDpKkLjAampmcxQD7t-1" edge="1">
          <mxGeometry relative="1" as="geometry">
            <mxPoint x="738" y="-320" as="sourcePoint" />
          </mxGeometry>
        </mxCell>
        <mxCell id="_aVkQuLdsNPz5XUx-6iK-4" value="CloudFront" style="text;html=1;align=center;verticalAlign=middle;whiteSpace=wrap;rounded=0;fontStyle=1" parent="1" vertex="1">
          <mxGeometry x="648.5" y="-346" width="180" height="30" as="geometry" />
        </mxCell>
        <mxCell id="fmpXc0fQQ6A-w2xZZ8H7-2" value="" style="endArrow=classic;startArrow=classic;html=1;rounded=0;entryX=0;entryY=0.5;entryDx=0;entryDy=0;entryPerimeter=0;exitX=1;exitY=0.5;exitDx=0;exitDy=0;exitPerimeter=0;flowAnimation=1;" edge="1" parent="1" source="fZaOEl6QZcA-DJm4cIK6-42" target="fZaOEl6QZcA-DJm4cIK6-15">
          <mxGeometry width="50" height="50" relative="1" as="geometry">
            <mxPoint x="460" y="120" as="sourcePoint" />
            <mxPoint x="510" y="70" as="targetPoint" />
          </mxGeometry>
        </mxCell>
        <mxCell id="fmpXc0fQQ6A-w2xZZ8H7-3" value="" style="endArrow=classic;startArrow=classic;html=1;rounded=0;flowAnimation=1;" edge="1" parent="1" source="rBP_9qC5Dho6mVosZ1Wq-5" target="fZaOEl6QZcA-DJm4cIK6-39">
          <mxGeometry width="50" height="50" relative="1" as="geometry">
            <mxPoint x="824.0393218813452" y="-23" as="sourcePoint" />
            <mxPoint x="824.0393218813452" y="-73" as="targetPoint" />
          </mxGeometry>
        </mxCell>
      </root>
    </mxGraphModel>
  </diagram>
  <diagram id="hT-faQbDvlj8T8WxDOeI" name="Arquitetura do Back-end">
    <mxGraphModel grid="1" page="1" gridSize="10" guides="1" tooltips="1" connect="1" arrows="1" fold="1" pageScale="1" pageWidth="827" pageHeight="1169" math="0" shadow="0">
      <root>
        <mxCell id="0" />
        <mxCell id="1" parent="0" />
      </root>
    </mxGraphModel>
  </diagram>
  <diagram id="s9auiPJWK7DcaHGwhmAj" name="Arquitetura do Front-End">
    <mxGraphModel grid="1" page="1" gridSize="10" guides="1" tooltips="1" connect="1" arrows="1" fold="1" pageScale="1" pageWidth="827" pageHeight="1169" math="0" shadow="0">
      <root>
        <mxCell id="0" />
        <mxCell id="1" parent="0" />
      </root>
    </mxGraphModel>
  </diagram>
</mxfile>
